# File created by Blade
# Date/Time:  Wed Jan 21 17:16:23 2015
# Frame Rate: 120.000 fps
#------------------------------------------------------
:FULLY-SPECIFIED
:DEGREES
1358
root 21.164604 5.366345 -16.069394 -183.800804 -6.083292 -205.625564
Spine 14.625652 1.801335 -37.727110
Head 15.348358 -2.626758 12.122784
LeftShoulder 1.448410 -27.458999 2.842021
LeftArm 9.277836 40.568207 -42.754027
LeftForeArm 9.894881 -0.000000 60.682581
LeftHand -7.421789 -0.000000 -7.754880
LeftHandThumb1 -26.253704 0.000000 33.147579
RightShoulder -4.724017 -5.039742 12.940533
RightArm 28.361544 -26.114765 59.502555
RightForeArm -58.304634 -0.000000 69.084861
RightHand -5.345118 -0.000000 -15.210082
RightHandThumb1 -24.326973 -0.000000 -32.862282
LeftUpLeg -12.533601 27.763480 37.118452
LeftLeg 148.667573 -0.000000 -0.000000
LeftFoot 48.363419 3.052757 19.302343
LeftToeBase 19.953615 -0.000000 -0.000000
RightUpLeg -107.407136 -7.197277 60.009415
RightLeg 125.822839 -0.000000 -0.000000
RightFoot 33.894741 -23.076545 8.955793
RightToeBase 38.309344 -0.000000 -0.000000
1359
root 21.161428 5.368187 -16.067881 -183.880501 -6.148933 -205.596391
Spine 14.717319 1.803056 -37.754229
Head 15.270105 -2.976208 12.306274
LeftShoulder 1.750601 -27.447695 2.712317
LeftArm 10.288391 41.908492 -42.718784
LeftForeArm 9.815876 0.000000 60.015643
LeftHand -6.998177 -0.000000 -7.804407
LeftHandThumb1 -26.253704 0.000000 33.147579
RightShoulder -4.597775 -4.942996 13.065236
RightArm 29.540646 -26.981730 58.597262
RightForeArm -58.570288 0.000000 67.965873
RightHand -5.048992 -0.000000 -15.585582
RightHandThumb1 -24.326973 -0.000000 -32.862282
LeftUpLeg -12.548861 27.696859 37.125886
LeftLeg 148.684017 -0.000000 -0.000000
LeftFoot 48.406827 3.132983 19.264296
LeftToeBase 19.949196 -0.000000 -0.000000
RightUpLeg -107.449082 -7.309400 60.095921
RightLeg 125.822665 -0.000000 -0.000000
RightFoot 33.826026 -23.402088 9.005126
RightToeBase 38.290950 -0.000000 -0.000000
1360
root 21.157190 5.359370 -16.060077 -183.905298 -6.258296 -205.468538
Spine 14.785697 1.667213 -37.631830
Head 15.172883 -3.262767 12.401969
LeftShoulder 2.034332 -27.489410 2.555513
LeftArm 11.094559 43.004970 -42.944242
LeftForeArm 9.984215 -0.000000 59.384355
LeftHand -6.898555 -0.000000 -7.776523
LeftHandThumb1 -26.253704 0.000000 33.147579
RightShoulder -4.404120 -4.840316 13.114595
RightArm 30.681595 -27.819302 57.739828
RightForeArm -58.563734 -0.000000 66.935964
RightHand -4.980396 0.000000 -15.801254
RightHandThumb1 -24.326973 -0.000000 -32.862282
LeftUpLeg -12.576801 27.569481 37.288528
LeftLeg 148.784401 -0.000000 -0.000000
LeftFoot 48.148888 2.985324 19.362361
LeftToeBase 20.204450 -0.000000 -0.000000
RightUpLeg -107.522448 -7.466016 60.007576
RightLeg 125.867441 -0.000000 -0.000000
RightFoot 33.955745 -22.538131 9.090517
RightToeBase 38.133021 -0.000000 -0.000000
1361
root 21.153749 5.359441 -16.053320 -183.952008 -6.316250 -205.418962
Spine 14.850255 1.609185 -37.626470
Head 15.083077 -3.553824 12.538365
LeftShoulder 2.325044 -27.494190 2.413900
LeftArm 11.920220 44.117927 -43.085187
LeftForeArm 10.415800 -0.000000 58.749395
LeftHand -6.520329 0.000000 -8.296653
LeftHandThumb1 -26.253704 0.000000 33.147579
RightShoulder -4.148817 -4.650691 13.189310
RightArm 31.663248 -28.607969 56.986617
RightForeArm -58.712009 -0.000000 65.829676
RightHand -4.772454 -0.000000 -16.062325
RightHandThumb1 -24.326973 -0.000000 -32.862282
LeftUpLeg -12.634419 27.530255 37.302698
LeftLeg 148.816473 -0.000000 -0.000000
LeftFoot 48.199654 3.040300 19.338261
LeftToeBase 20.200002 -0.000000 -0.000000
RightUpLeg -107.581084 -7.466912 60.202776
RightLeg 125.845237 -0.000000 -0.000000
RightFoot 33.908470 -23.100641 8.913441
RightToeBase 38.004355 -0.000000 -0.000000
1362
root 21.150813 5.355512 -16.053382 -183.987920 -6.330707 -205.368518
Spine 14.849285 1.607769 -37.606020
Head 14.994394 -3.857638 12.658815
LeftShoulder 2.631765 -27.497141 2.287093
LeftArm 12.645038 45.109442 -43.351877
LeftForeArm 11.105356 -0.000000 58.117907
LeftHand -6.102372 -0.000000 -8.729676
LeftHandThumb1 -26.253704 0.000000 33.147579
RightShoulder -3.936855 -4.458598 13.241285
RightArm 32.620275 -29.389681 56.222405
RightForeArm -58.666867 -0.000000 64.833959
RightHand -4.471984 -0.000000 -15.774098
RightHandThumb1 -24.326973 -0.000000 -32.862282
LeftUpLeg -12.619159 27.505902 37.396533
LeftLeg 148.822824 -0.000000 -0.000000
LeftFoot 48.286226 3.081776 19.341739
LeftToeBase 20.117991 -0.000000 -0.000000
RightUpLeg -107.582520 -7.486431 60.312319
RightLeg 125.845101 -0.000000 -0.000000
RightFoot 33.900672 -23.175677 8.829861
RightToeBase 37.934028 -0.000000 -0.000000
1363
root 21.147199 5.353161 -16.050705 -184.014014 -6.379515 -205.318977
Spine 14.854653 1.581680 -37.579730
Head 14.895870 -4.154654 12.785056
LeftShoulder 2.979159 -27.493964 2.101038
LeftArm 13.311392 46.132743 -43.589635
LeftForeArm 11.711608 -0.000000 57.521001
LeftHand -5.846757 -0.000000 -8.923855
LeftHandThumb1 -26.253704 0.000000 33.147579
RightShoulder -3.717586 -4.314933 13.320756
RightArm 33.622701 -30.082906 55.441068
RightForeArm -58.648167 -0.000000 63.759072
RightHand -4.201358 -0.000000 -15.456392
RightHandThumb1 -24.326973 -0.000000 -32.862282
LeftUpLeg -12.653331 27.473458 37.442991
LeftLeg 148.848237 -0.000000 -0.000000
LeftFoot 48.310925 3.107778 19.340428
LeftToeBase 20.151190 -0.000000 -0.000000
RightUpLeg -107.626234 -7.539358 60.369534
RightLeg 125.861548 -0.000000 -0.000000
RightFoot 33.902931 -23.199634 8.827661
RightToeBase 37.845677 -0.000000 -0.000000
1364
root 21.143495 5.351371 -16.045529 -184.037253 -6.431718 -205.272115
Spine 14.878429 1.551237 -37.555585
Head 14.762774 -4.442311 12.887195
LeftShoulder 3.375940 -27.537765 1.843287
LeftArm 13.823035 47.011376 -43.901372
LeftForeArm 12.653063 -0.000000 57.015310
LeftHand -5.739666 -0.000000 -9.072693
LeftHandThumb1 -26.253704 0.000000 33.147579
RightShoulder -3.513994 -4.139860 13.404655
RightArm 34.623622 -30.804643 54.642099
RightForeArm -58.575580 -0.000000 62.645873
RightHand -4.048025 -0.000000 -15.321320
RightHandThumb1 -24.326973 -0.000000 -32.862282
LeftUpLeg -12.693381 27.448059 37.475600
LeftLeg 148.860509 -0.000000 -0.000000
LeftFoot 48.497009 3.111514 19.373013
LeftToeBase 19.740150 -0.000000 -0.000000
RightUpLeg -107.674172 -7.599911 60.402498
RightLeg 125.874640 -0.000000 -0.000000
RightFoot 33.826510 -23.306804 8.997043
RightToeBase 37.952544 -0.000000 -0.000000
